<svg width="1716" height="336" viewBox="0 0 1716 336" fill="none" xmlns="http://www.w3.org/2000/svg">
<path fill-rule="evenodd" clip-rule="evenodd" d="M17.2277 258.888C-6.53627 233.968 -5.5993 194.502 19.3204 170.738L22.3233 167.875L19.5816 165.26C-5.33795 141.496 -6.27458 102.03 17.4896 77.1106C41.2537 52.1911 80.7196 51.2544 105.639 75.0186L112.667 81.7209L180.297 17.2277C205.217 -6.53627 244.683 -5.5993 268.447 19.3204C292.211 44.2402 291.274 83.7061 266.354 107.47L203.011 167.875L266.615 228.53C291.534 252.295 292.471 291.76 268.707 316.68C244.943 341.6 205.477 342.536 180.557 318.772L112.667 254.029L105.377 260.981C80.4575 284.745 40.9916 283.808 17.2277 258.888ZM110.451 188.428C121.216 188.428 129.943 179.701 129.943 168.935C129.943 158.17 121.216 149.443 110.451 149.443C99.6856 149.443 90.9585 158.17 90.9585 168.935C90.9585 179.701 99.6856 188.428 110.451 188.428Z" fill="#00B17C"/>
<path d="M536.328 303L426.478 182.128V303H366.422V33.1281H426.478V146.018L518.083 33.1281H592.202L485.774 162.743L613.868 303H536.328ZM684.935 307.181C661.876 307.181 644.138 299.452 631.721 283.995C619.304 268.537 613.096 247.632 613.096 221.278V112.949H670.491V211.396C670.491 240.537 680.247 255.107 699.759 255.107C723.579 255.107 735.489 238.509 735.489 205.314V112.949H792.884V303H735.489V283.615C724.592 299.326 707.741 307.181 684.935 307.181ZM839.948 303V17.9241H897.344V303H839.948ZM1103.51 278.674C1083.99 297.679 1060.43 307.181 1032.81 307.181C1005.19 307.181 981.621 297.679 962.109 278.674C942.597 259.415 932.841 235.849 932.841 207.975C932.841 180.101 942.597 156.661 962.109 137.656C981.621 118.397 1005.19 108.768 1032.81 108.768C1060.43 108.768 1083.99 118.397 1103.51 137.656C1123.02 156.661 1132.77 180.101 1132.77 207.975C1132.77 235.849 1123.02 259.415 1103.51 278.674ZM1002.4 241.043C1010.51 249.406 1020.64 253.587 1032.81 253.587C1044.97 253.587 1054.98 249.406 1062.84 241.043C1070.94 232.681 1075 221.658 1075 207.975C1075 194.291 1070.94 183.268 1062.84 174.906C1054.98 166.544 1044.97 162.363 1032.81 162.363C1020.64 162.363 1010.51 166.544 1002.4 174.906C994.544 183.268 990.617 194.291 990.617 207.975C990.617 221.658 994.544 232.681 1002.4 241.043ZM1277.17 307.181C1265.52 307.181 1255 304.901 1245.62 300.339C1236.25 295.525 1229.53 290.077 1225.48 283.995V303H1168.08V17.9241H1225.48V131.954C1229.53 125.873 1236.25 120.551 1245.62 115.99C1255 111.176 1265.52 108.768 1277.17 108.768C1301.75 108.768 1322.53 118.524 1339.51 138.036C1356.74 157.548 1365.36 180.861 1365.36 207.975C1365.36 235.089 1356.74 258.401 1339.51 277.913C1322.53 297.425 1301.75 307.181 1277.17 307.181ZM1232.7 241.804C1240.81 250.673 1251.32 255.107 1264.25 255.107C1277.17 255.107 1287.56 250.673 1295.42 241.804C1303.53 232.935 1307.58 221.658 1307.58 207.975C1307.58 194.291 1303.53 183.015 1295.42 174.146C1287.56 165.277 1277.17 160.842 1264.25 160.842C1251.32 160.842 1240.81 165.277 1232.7 174.146C1224.84 183.015 1220.92 194.291 1220.92 207.975C1220.92 221.658 1224.84 232.935 1232.7 241.804ZM1477.97 307.181C1453.39 307.181 1432.49 297.425 1415.26 277.913C1398.28 258.401 1389.79 235.089 1389.79 207.975C1389.79 180.861 1398.28 157.548 1415.26 138.036C1432.49 118.524 1453.39 108.768 1477.97 108.768C1499.76 108.768 1517 116.497 1529.67 131.954V112.949H1587.06V303H1529.67V283.995C1517 299.452 1499.76 307.181 1477.97 307.181ZM1459.35 241.804C1467.46 250.673 1477.97 255.107 1490.9 255.107C1503.82 255.107 1514.21 250.673 1522.06 241.804C1530.17 232.935 1534.23 221.658 1534.23 207.975C1534.23 194.291 1530.17 183.015 1522.06 174.146C1514.21 165.277 1503.82 160.842 1490.9 160.842C1477.97 160.842 1467.46 165.277 1459.35 174.146C1451.49 183.015 1447.56 194.291 1447.56 207.975C1447.56 221.658 1451.49 232.935 1459.35 241.804ZM1634.3 303V17.9241H1691.7V303H1634.3Z" fill="#00B17C"/>
</svg>
