<svg width="195" height="64" viewBox="0 0 195 64" fill="none" xmlns="http://www.w3.org/2000/svg">
<path fill-rule="evenodd" clip-rule="evenodd" d="M2.70563 29.252C0.025115 26.4411 0.130802 21.9894 2.94169 19.3089L3.28039 18.9859L2.97115 18.691C0.160283 16.0105 0.0546243 11.5588 2.73516 8.74796C5.4157 5.93709 9.86736 5.83144 12.6782 8.51198L13.471 9.26798L21.0995 1.99329C23.9104 -0.687224 28.3621 -0.581543 31.0426 2.22934C33.7231 5.04023 33.6174 9.49189 30.8065 12.1724L23.6615 18.986L30.8359 25.8278C33.6468 28.5083 33.7524 32.96 31.0719 35.7708C28.3914 38.5817 23.9397 38.6873 21.1288 36.0068L13.4709 28.704L12.6487 29.488C9.83782 32.1686 5.38615 32.0629 2.70563 29.252ZM13.221 21.3042C14.4353 21.3042 15.4197 20.3198 15.4197 19.1055C15.4197 17.8912 14.4353 16.9068 13.221 16.9068C12.0067 16.9068 11.0223 17.8912 11.0223 19.1055C11.0223 20.3198 12.0067 21.3042 13.221 21.3042Z" fill="white"/>
<path d="M61.2589 34L48.8681 20.3659V34H42.0939V3.55908H48.8681V16.2928L59.2009 3.55908H67.5614L55.5565 18.1793L70.0053 34H61.2589ZM78.0215 34.4716C75.4204 34.4716 73.4196 33.5998 72.019 31.8563C70.6185 30.1127 69.9182 27.7546 69.9182 24.782V12.5627H76.3922V23.6672C76.3922 26.9543 77.4927 28.5978 79.6936 28.5978C82.3804 28.5978 83.7238 26.7256 83.7238 22.9812V12.5627H90.1978V34H83.7238V31.8134C82.4947 33.5855 80.5939 34.4716 78.0215 34.4716ZM95.5066 34V1.8441H101.981V34H95.5066ZM125.235 31.256C123.034 33.3998 120.376 34.4716 117.261 34.4716C114.145 34.4716 111.487 33.3998 109.286 31.256C107.085 29.0837 105.985 26.4255 105.985 23.2814C105.985 20.1372 107.085 17.4933 109.286 15.3496C111.487 13.1773 114.145 12.0911 117.261 12.0911C120.376 12.0911 123.034 13.1773 125.235 15.3496C127.436 17.4933 128.537 20.1372 128.537 23.2814C128.537 26.4255 127.436 29.0837 125.235 31.256ZM113.831 27.0115C114.745 27.9547 115.889 28.4263 117.261 28.4263C118.633 28.4263 119.762 27.9547 120.648 27.0115C121.562 26.0682 122.02 24.8249 122.02 23.2814C122.02 21.7379 121.562 20.4945 120.648 19.5513C119.762 18.608 118.633 18.1364 117.261 18.1364C115.889 18.1364 114.745 18.608 113.831 19.5513C112.945 20.4945 112.502 21.7379 112.502 23.2814C112.502 24.8249 112.945 26.0682 113.831 27.0115ZM144.824 34.4716C143.51 34.4716 142.323 34.2144 141.266 33.6999C140.208 33.1568 139.451 32.5423 138.993 31.8563V34H132.519V1.8441H138.993V14.7065C139.451 14.0205 140.208 13.4202 141.266 12.9057C142.323 12.3627 143.51 12.0911 144.824 12.0911C147.597 12.0911 149.941 13.1916 151.856 15.3925C153.799 17.5933 154.771 20.223 154.771 23.2814C154.771 26.3398 153.799 28.9694 151.856 31.1703C149.941 33.3712 147.597 34.4716 144.824 34.4716ZM139.808 27.0972C140.723 28.0976 141.909 28.5978 143.367 28.5978C144.824 28.5978 145.996 28.0976 146.882 27.0972C147.797 26.0968 148.254 24.8249 148.254 23.2814C148.254 21.7379 147.797 20.4659 146.882 19.4655C145.996 18.4651 144.824 17.9649 143.367 17.9649C141.909 17.9649 140.723 18.4651 139.808 19.4655C138.922 20.4659 138.479 21.7379 138.479 23.2814C138.479 24.8249 138.922 26.0968 139.808 27.0972ZM167.474 34.4716C164.702 34.4716 162.343 33.3712 160.4 31.1703C158.485 28.9694 157.527 26.3398 157.527 23.2814C157.527 20.223 158.485 17.5933 160.4 15.3925C162.343 13.1916 164.702 12.0911 167.474 12.0911C169.932 12.0911 171.876 12.9629 173.305 14.7065V12.5627H179.779V34H173.305V31.8563C171.876 33.5998 169.932 34.4716 167.474 34.4716ZM165.373 27.0972C166.288 28.0976 167.474 28.5978 168.932 28.5978C170.39 28.5978 171.562 28.0976 172.448 27.0972C173.362 26.0968 173.82 24.8249 173.82 23.2814C173.82 21.7379 173.362 20.4659 172.448 19.4655C171.562 18.4651 170.39 17.9649 168.932 17.9649C167.474 17.9649 166.288 18.4651 165.373 19.4655C164.487 20.4659 164.044 21.7379 164.044 23.2814C164.044 24.8249 164.487 26.0968 165.373 27.0972ZM185.108 34V1.8441H191.582V34H185.108Z" fill="white"/>
<path d="M40.1364 59.95V50.01H41.4384V54.252H46.8844V50.01H48.1864V59.95H46.8844V55.47H41.4384V59.95H40.1364ZM53.5891 60.09C52.5157 60.09 51.6431 59.7446 50.9711 59.054C50.2991 58.3633 49.9631 57.4953 49.9631 56.45C49.9631 55.414 50.3037 54.5506 50.9851 53.86C51.6664 53.16 52.5391 52.81 53.6031 52.81C54.5457 52.81 55.3344 53.1273 55.9691 53.762C56.6131 54.3873 56.9351 55.2413 56.9351 56.324C56.9351 56.464 56.9304 56.5853 56.9211 56.688H51.1811C51.1997 57.3413 51.4331 57.8873 51.8811 58.326C52.3384 58.7646 52.9124 58.984 53.6031 58.984C54.5831 58.984 55.3111 58.578 55.7871 57.766L56.7391 58.424C56.0577 59.5346 55.0077 60.09 53.5891 60.09ZM51.2651 55.708H55.7031C55.6097 55.148 55.3624 54.7046 54.9611 54.378C54.5691 54.042 54.1024 53.874 53.5611 53.874C53.0104 53.874 52.5157 54.042 52.0771 54.378C51.6477 54.7046 51.3771 55.148 51.2651 55.708ZM61.5278 60.09C60.5572 60.09 59.7405 59.7353 59.0778 59.026C58.4245 58.3166 58.0978 57.458 58.0978 56.45C58.0978 55.442 58.4245 54.5833 59.0778 53.874C59.7405 53.1646 60.5572 52.81 61.5278 52.81C62.0412 52.81 62.5172 52.9266 62.9558 53.16C63.4038 53.384 63.7492 53.6733 63.9918 54.028V52.95H65.1958V59.95H63.9918V58.872C63.7492 59.2266 63.4038 59.5206 62.9558 59.754C62.5172 59.978 62.0412 60.09 61.5278 60.09ZM61.7098 58.984C62.4005 58.984 62.9698 58.7413 63.4178 58.256C63.8658 57.7706 64.0898 57.1686 64.0898 56.45C64.0898 55.7313 63.8658 55.1293 63.4178 54.644C62.9698 54.1586 62.4005 53.916 61.7098 53.916C61.0098 53.916 60.4358 54.1586 59.9878 54.644C59.5398 55.1293 59.3158 55.7313 59.3158 56.45C59.3158 57.1686 59.5398 57.7706 59.9878 58.256C60.4358 58.7413 61.0098 58.984 61.7098 58.984ZM67.4622 59.95V49.45H68.6662V59.95H67.4622ZM73.6645 60.02C73.0205 60.02 72.5025 59.838 72.1105 59.474C71.7185 59.11 71.5225 58.578 71.5225 57.878V54.056H70.0385V52.95H71.5225V51.004H72.7265V52.95H74.7425V54.056H72.7265V57.724C72.7265 58.1626 72.8198 58.4706 73.0065 58.648C73.1932 58.8253 73.4872 58.914 73.8885 58.914C74.2432 58.914 74.5278 58.8673 74.7425 58.774V59.852C74.4065 59.964 74.0472 60.02 73.6645 60.02ZM77.4845 59.95H76.2805V49.45H77.4845V54.028C77.9605 53.216 78.7025 52.81 79.7105 52.81C80.5039 52.81 81.1432 53.0666 81.6285 53.58C82.1139 54.0933 82.3565 54.7793 82.3565 55.638V59.95H81.1665V55.82C81.1665 55.232 81.0172 54.77 80.7185 54.434C80.4199 54.0886 80.0185 53.916 79.5145 53.916C78.9359 53.916 78.4505 54.1446 78.0585 54.602C77.6759 55.0593 77.4845 55.6846 77.4845 56.478V59.95ZM87.6467 60.09C86.592 60.09 85.7147 59.74 85.0147 59.04C84.324 58.34 83.9787 57.4766 83.9787 56.45C83.9787 55.4233 84.324 54.56 85.0147 53.86C85.7147 53.16 86.592 52.81 87.6467 52.81C88.356 52.81 88.9907 52.978 89.5507 53.314C90.12 53.65 90.5634 54.1073 90.8807 54.686L89.8307 55.274C89.6254 54.8633 89.3314 54.5366 88.9487 54.294C88.5754 54.0513 88.1414 53.93 87.6467 53.93C86.928 53.93 86.34 54.1726 85.8827 54.658C85.4254 55.1433 85.1967 55.7406 85.1967 56.45C85.1967 57.1593 85.4254 57.7566 85.8827 58.242C86.34 58.7273 86.928 58.97 87.6467 58.97C88.1414 58.97 88.5754 58.8486 88.9487 58.606C89.3314 58.3633 89.6254 58.0366 89.8307 57.626L90.8807 58.214C90.5634 58.7926 90.12 59.25 89.5507 59.586C88.9907 59.922 88.356 60.09 87.6467 60.09ZM95.3247 60.09C94.354 60.09 93.5374 59.7353 92.8747 59.026C92.2214 58.3166 91.8947 57.458 91.8947 56.45C91.8947 55.442 92.2214 54.5833 92.8747 53.874C93.5374 53.1646 94.354 52.81 95.3247 52.81C95.838 52.81 96.314 52.9266 96.7527 53.16C97.2007 53.384 97.546 53.6733 97.7887 54.028V52.95H98.9927V59.95H97.7887V58.872C97.546 59.2266 97.2007 59.5206 96.7527 59.754C96.314 59.978 95.838 60.09 95.3247 60.09ZM95.5067 58.984C96.1974 58.984 96.7667 58.7413 97.2147 58.256C97.6627 57.7706 97.8867 57.1686 97.8867 56.45C97.8867 55.7313 97.6627 55.1293 97.2147 54.644C96.7667 54.1586 96.1974 53.916 95.5067 53.916C94.8067 53.916 94.2327 54.1586 93.7847 54.644C93.3367 55.1293 93.1127 55.7313 93.1127 56.45C93.1127 57.1686 93.3367 57.7706 93.7847 58.256C94.2327 58.7413 94.8067 58.984 95.5067 58.984ZM101.259 59.95V52.95H102.463V54.308C102.594 53.8786 102.846 53.5333 103.219 53.272C103.602 53.0106 104.003 52.88 104.423 52.88C104.628 52.88 104.81 52.8986 104.969 52.936V54.182C104.801 54.1073 104.582 54.07 104.311 54.07C103.826 54.07 103.396 54.28 103.023 54.7C102.65 55.12 102.463 55.7126 102.463 56.478V59.95H101.259ZM109.22 60.09C108.147 60.09 107.274 59.7446 106.602 59.054C105.93 58.3633 105.594 57.4953 105.594 56.45C105.594 55.414 105.935 54.5506 106.616 53.86C107.297 53.16 108.17 52.81 109.234 52.81C110.177 52.81 110.965 53.1273 111.6 53.762C112.244 54.3873 112.566 55.2413 112.566 56.324C112.566 56.464 112.561 56.5853 112.552 56.688H106.812C106.831 57.3413 107.064 57.8873 107.512 58.326C107.969 58.7646 108.543 58.984 109.234 58.984C110.214 58.984 110.942 58.578 111.418 57.766L112.37 58.424C111.689 59.5346 110.639 60.09 109.22 60.09ZM106.896 55.708H111.334C111.241 55.148 110.993 54.7046 110.592 54.378C110.2 54.042 109.733 53.874 109.192 53.874C108.641 53.874 108.147 54.042 107.708 54.378C107.279 54.7046 107.008 55.148 106.896 55.708ZM117.834 59.95V50.01H123.616V51.242H119.136V54.252H122.678V55.484H119.136V59.95H117.834ZM127.664 60.09C126.609 60.09 125.732 59.74 125.032 59.04C124.341 58.3306 123.996 57.4673 123.996 56.45C123.996 55.4326 124.341 54.574 125.032 53.874C125.732 53.1646 126.609 52.81 127.664 52.81C128.709 52.81 129.577 53.1646 130.268 53.874C130.968 54.574 131.318 55.4326 131.318 56.45C131.318 57.4673 130.968 58.3306 130.268 59.04C129.577 59.74 128.709 60.09 127.664 60.09ZM125.9 58.242C126.357 58.7273 126.945 58.97 127.664 58.97C128.383 58.97 128.966 58.7273 129.414 58.242C129.862 57.7566 130.086 57.1593 130.086 56.45C130.086 55.7406 129.862 55.1433 129.414 54.658C128.966 54.1726 128.383 53.93 127.664 53.93C126.945 53.93 126.357 54.1726 125.9 54.658C125.452 55.1433 125.228 55.7406 125.228 56.45C125.228 57.1593 125.452 57.7566 125.9 58.242ZM133.046 59.95V52.95H134.25V54.308C134.381 53.8786 134.633 53.5333 135.006 53.272C135.389 53.0106 135.79 52.88 136.21 52.88C136.416 52.88 136.598 52.8986 136.756 52.936V54.182C136.588 54.1073 136.369 54.07 136.098 54.07C135.613 54.07 135.184 54.28 134.81 54.7C134.437 55.12 134.25 55.7126 134.25 56.478V59.95H133.046ZM139.68 59.95L144.076 50.01H145.154L149.564 59.95H148.206L146.918 57.052H142.284L141.024 59.95H139.68ZM144.594 51.774L142.802 55.876H146.4L144.594 51.774ZM150.779 59.95V49.45H151.983V59.95H150.779ZM154.265 59.95V49.45H155.469V59.95H154.265Z" fill="white"/>
</svg>
