<svg width="286" height="336" viewBox="0 0 286 336" fill="none" xmlns="http://www.w3.org/2000/svg">
<path fill-rule="evenodd" clip-rule="evenodd" d="M17.2277 258.888C-6.53627 233.968 -5.5993 194.502 19.3204 170.738L22.3233 167.875L19.5816 165.26C-5.33795 141.496 -6.27458 102.03 17.4896 77.1106C41.2537 52.1911 80.7196 51.2544 105.639 75.0186L112.667 81.7209L180.297 17.2277C205.217 -6.53627 244.683 -5.5993 268.447 19.3204C292.211 44.2402 291.274 83.7061 266.354 107.47L203.011 167.875L266.615 228.53C291.534 252.295 292.471 291.76 268.707 316.68C244.943 341.6 205.477 342.536 180.557 318.772L112.667 254.029L105.377 260.981C80.4575 284.745 40.9916 283.808 17.2277 258.888ZM110.451 188.428C121.216 188.428 129.943 179.701 129.943 168.935C129.943 158.17 121.216 149.443 110.451 149.443C99.6856 149.443 90.9585 158.17 90.9585 168.935C90.9585 179.701 99.6856 188.428 110.451 188.428Z" fill="#00B17C"/>
</svg>
