<svg class="svg-icon" style="width: 1em; height: 1em;vertical-align: middle;fill: currentColor;overflow: hidden;" viewBox="0 0 1024 1024" version="1.1" xmlns="http://www.w3.org/2000/svg"><path d="M512.5 98.29c-227.84 0-412.54 184.7-412.54 412.54s184.7 412.54 412.54 412.54 412.54-184.7 412.54-412.54S740.34 98.29 512.5 98.29z m249.28 661.82c-32.4 32.4-70.1 57.82-112.08 75.58-43.42 18.37-89.59 27.68-137.21 27.68-47.62 0-93.78-9.31-137.2-27.68-41.97-17.75-79.68-43.18-112.08-75.58-32.4-32.4-57.82-70.1-75.58-112.08-18.37-43.42-27.68-89.59-27.68-137.21 0-47.62 9.31-93.78 27.68-137.21 17.75-41.97 43.18-79.68 75.58-112.08s70.1-57.82 112.08-75.58c43.42-18.37 89.59-27.68 137.21-27.68 47.62 0 93.78 9.31 137.21 27.68 41.97 17.75 79.68 43.18 112.08 75.58s57.82 70.1 75.58 112.08c18.37 43.42 27.68 89.59 27.68 137.21 0 47.62-9.31 93.78-27.68 137.21-17.77 41.97-43.19 79.68-75.59 112.08z"  /><path d="M738.68 674.81L542 497.48V248.27c0-16.57-13.43-30-30-30s-30 13.43-30 30v262.55c0 8.5 3.6 16.59 9.91 22.28L698.5 719.37a29.906 29.906 0 0 0 20.08 7.72c8.2 0 16.37-3.34 22.29-9.91 11.1-12.3 10.12-31.27-2.19-42.37z"  /></svg>