<svg width="16" height="16" viewBox="0 0 16 16" fill="none" xmlns="http://www.w3.org/2000/svg">
<rect x="0.600098" y="2.7998" width="14.8" height="3.8" rx="1.5" stroke="#0E0D0D" stroke-width="1.2"/>
<path d="M8.05334 2.70703L11.2037 0.815015C11.6772 0.530669 12.2783 0.691621 12.5463 1.17451L13.5002 2.89329" stroke="#0E0D0D" stroke-width="1.2"/>
<path d="M7.9469 2.70703L4.79654 0.815015C4.32307 0.530669 3.72199 0.691621 3.45397 1.17451L2.5 2.89329" stroke="#0E0D0D" stroke-width="1.2"/>
<path d="M6 6.59961H10V10.754C10 11.1343 9.59227 11.3754 9.25904 11.1921L8.48191 10.7647C8.18183 10.5996 7.81817 10.5996 7.51809 10.7647L6.74095 11.1921C6.40773 11.3754 6 11.1343 6 10.754V6.59961Z" stroke="#0E0D0D" stroke-width="1.2" stroke-linejoin="round"/>
<path d="M1.6001 6.59961H14.4001V13.3996C14.4001 14.5042 13.5047 15.3996 12.4001 15.3996H3.6001C2.49553 15.3996 1.6001 14.5042 1.6001 13.3996V6.59961Z" stroke="#0E0D0D" stroke-width="1.2"/>
</svg>
