<svg width="16" height="16" viewBox="0 0 16 16" fill="none" xmlns="http://www.w3.org/2000/svg">
<path d="M9.4681 14.759C9.4681 14.7587 9.46801 14.7583 9.46785 14.758L9.28248 14.4253C8.72272 13.4207 7.27748 13.4207 6.71771 14.4253L6.5321 14.7585C6.39949 14.9963 6.18125 15.1698 5.92532 15.2409C5.66939 15.312 5.39669 15.275 5.1671 15.1378L3.4341 14.1013C3.20442 13.9639 3.03684 13.7375 2.9682 13.472C2.89956 13.2065 2.9355 12.9236 3.0681 12.6855L3.29358 12.2808C3.85065 11.281 3.12778 10.0507 1.98324 10.0507H1.6001C1.33488 10.0507 1.08053 9.94152 0.892991 9.74714C0.705455 9.55276 0.600098 9.28912 0.600098 9.01423V6.94124C0.600098 6.66635 0.705455 6.40271 0.892991 6.20833C1.08053 6.01395 1.33488 5.90475 1.6001 5.90475H1.98324C3.12778 5.90475 3.85065 4.6745 3.29358 3.67467L3.0681 3.26998C3.00228 3.15206 2.95954 3.02185 2.94232 2.88679C2.92509 2.75174 2.93373 2.61449 2.96772 2.48289C3.00171 2.3513 3.0604 2.22794 3.14042 2.11987C3.22045 2.01181 3.32024 1.92115 3.4341 1.85309L5.1661 0.816596C5.39578 0.679155 5.66872 0.641909 5.9249 0.713051C6.18107 0.784194 6.39949 0.957898 6.5321 1.19595L6.69008 1.47962C7.26189 2.5063 8.73869 2.50652 9.31079 1.47999L9.4691 1.19595C9.60171 0.958179 9.81994 0.784677 10.0759 0.713549C10.3318 0.642421 10.6045 0.679483 10.8341 0.816596L12.5671 1.85309C12.7965 1.99054 12.9639 2.21674 13.0325 2.48201C13.1011 2.74728 13.0654 3.02994 12.9331 3.2679L12.7065 3.67473C12.1494 4.67455 12.8723 5.90475 14.0168 5.90475H14.4001C14.6653 5.90475 14.9197 6.01395 15.1072 6.20833C15.2947 6.40271 15.4001 6.66635 15.4001 6.94124V9.01423C15.4001 9.28912 15.2947 9.55276 15.1072 9.74714C14.9197 9.94152 14.6653 10.0507 14.4001 10.0507H14.0165C12.872 10.0507 12.1492 11.2808 12.706 12.2806L12.9321 12.6865C13.0647 12.9246 13.1006 13.2075 13.032 13.473C12.9634 13.7385 12.7958 13.9649 12.5661 14.1024L10.8341 15.1389C10.6044 15.2763 10.3315 15.3136 10.0753 15.2424C9.81929 15.1713 9.60099 14.9978 9.46835 14.76C9.46818 14.7597 9.4681 14.7593 9.4681 14.759V14.759Z" stroke="#0E0D0D" stroke-width="1.2" stroke-linejoin="round"/>
<circle cx="8" cy="8" r="2.4" stroke="#0E0D0D" stroke-width="1.2"/>
</svg>
